<svg version="1.1" id="Layer_1" xmlns="http://www.w3.org/2000/svg" xmlns:xlink="http://www.w3.org/1999/xlink" x="0px" y="0px"
	 width="100%" viewBox="0 0 782 830" enable-background="new 0 0 782 830" xml:space="preserve">
<path fill="#FFD700" opacity="1.000000" stroke="none" 
	d="
M521.000000,1.000000 
	C608.283813,1.000000 695.567566,1.000000 783.000000,1.000000 
	C783.000000,167.355942 783.000000,333.711945 782.621094,500.461853 
	C775.864563,497.508667 769.258911,499.630341 762.678040,499.872711 
	C739.565247,500.724121 716.443604,501.344635 693.323425,501.984436 
	C686.994568,502.159607 680.659119,502.134186 674.326660,502.134369 
	C653.204834,502.135071 632.074524,502.479187 610.963318,501.997253 
	C581.692810,501.329163 552.431885,500.150208 523.176453,498.954712 
	C508.064301,498.337189 492.978333,497.077698 477.866119,496.463379 
	C475.648438,496.373199 472.316925,497.622925 471.262634,499.336639 
	C465.727844,508.333160 471.236053,518.103943 481.614227,517.962158 
	C505.445160,517.636719 529.199036,518.589050 552.794434,522.063477 
	C565.178589,523.887085 577.447021,526.423645 588.373169,532.971008 
	C604.250183,542.484985 612.195862,557.508667 616.967834,574.719482 
	C623.481628,598.212219 624.206665,622.391113 624.779236,646.460999 
	C625.197693,664.050903 624.225525,681.741516 622.732666,699.290283 
	C621.238892,716.849609 618.572205,734.337585 611.873596,750.889465 
	C603.399170,771.829285 589.386230,787.161438 567.813782,795.123718 
	C548.802429,802.140625 528.948853,804.611938 508.983276,804.757996 
	C490.064636,804.896423 471.062531,803.761841 452.219788,801.927429 
	C417.961823,798.592346 385.231415,788.983215 354.098480,774.441650 
	C307.869751,752.849182 268.362762,722.368591 235.556030,683.193665 
	C200.541565,641.382507 175.722992,594.024353 158.740753,542.435181 
	C143.823563,497.119293 135.819534,450.424713 133.256851,402.886108 
	C132.112518,381.658386 132.178284,360.283936 133.175369,339.045563 
	C134.140213,318.494049 136.196030,297.911530 139.217926,277.557190 
	C144.383438,242.764359 154.885239,209.409592 170.655579,177.940262 
	C185.156540,149.003937 204.041000,123.172409 227.612518,100.782661 
	C245.041611,84.227386 264.535339,70.703911 285.989105,60.128696 
	C324.609863,41.091328 366.019592,33.461472 408.676514,32.177753 
	C422.927826,31.748878 437.280121,32.778130 451.512970,33.996677 
	C489.647034,37.261528 525.628113,47.874897 559.183655,66.533981 
	C598.478333,88.384415 630.216125,118.449188 656.022644,155.012314 
	C672.520264,178.386276 685.676086,203.577179 696.499634,230.026154 
	C698.662170,235.310715 702.777466,237.146179 708.177429,235.574921 
	C712.687378,234.262619 714.507812,230.950333 713.767090,225.352264 
	C713.570862,223.869156 713.196167,222.402969 713.089661,220.915695 
	C711.404236,197.368713 709.769409,173.818085 708.081787,150.271271 
	C706.061218,122.079796 703.897400,93.898102 702.009766,65.697838 
	C701.253967,54.405972 696.156738,46.123520 686.299866,40.754025 
	C683.088684,39.004745 679.776428,37.404625 676.401245,35.998207 
	C631.196899,17.161278 583.418518,9.648778 535.230591,3.892061 
	C530.440308,3.319790 525.741333,1.982322 521.000000,1.000000 
z"/>
<path fill="#272727" opacity="1.000000" stroke="none" 
	d="
M520.531372,1.000000 
	C525.741333,1.982322 530.440308,3.319790 535.230591,3.892061 
	C583.418518,9.648778 631.196899,17.161278 676.401245,35.998207 
	C679.776428,37.404625 683.088684,39.004745 686.299866,40.754025 
	C696.156738,46.123520 701.253967,54.405972 702.009766,65.697838 
	C703.897400,93.898102 706.061218,122.079796 708.081787,150.271271 
	C709.769409,173.818085 711.404236,197.368713 713.089661,220.915695 
	C713.196167,222.402969 713.570862,223.869156 713.767090,225.352264 
	C714.507812,230.950333 712.687378,234.262619 708.177429,235.574921 
	C702.777466,237.146179 698.662170,235.310715 696.499634,230.026154 
	C685.676086,203.577179 672.520264,178.386276 656.022644,155.012314 
	C630.216125,118.449188 598.478333,88.384415 559.183655,66.533981 
	C525.628113,47.874897 489.647034,37.261528 451.512970,33.996677 
	C437.280121,32.778130 422.927826,31.748878 408.676514,32.177753 
	C366.019592,33.461472 324.609863,41.091328 285.989105,60.128696 
	C264.535339,70.703911 245.041611,84.227386 227.612518,100.782661 
	C204.041000,123.172409 185.156540,149.003937 170.655579,177.940262 
	C154.885239,209.409592 144.383438,242.764359 139.217926,277.557190 
	C136.196030,297.911530 134.140213,318.494049 133.175369,339.045563 
	C132.178284,360.283936 132.112518,381.658386 133.256851,402.886108 
	C135.819534,450.424713 143.823563,497.119293 158.740753,542.435181 
	C175.722992,594.024353 200.541565,641.382507 235.556030,683.193665 
	C268.362762,722.368591 307.869751,752.849182 354.098480,774.441650 
	C385.231415,788.983215 417.961823,798.592346 452.219788,801.927429 
	C471.062531,803.761841 490.064636,804.896423 508.983276,804.757996 
	C528.948853,804.611938 548.802429,802.140625 567.813782,795.123718 
	C589.386230,787.161438 603.399170,771.829285 611.873596,750.889465 
	C618.572205,734.337585 621.238892,716.849609 622.732666,699.290283 
	C624.225525,681.741516 625.197693,664.050903 624.779236,646.460999 
	C624.206665,622.391113 623.481628,598.212219 616.967834,574.719482 
	C612.195862,557.508667 604.250183,542.484985 588.373169,532.971008 
	C577.447021,526.423645 565.178589,523.887085 552.794434,522.063477 
	C529.199036,518.589050 505.445160,517.636719 481.614227,517.962158 
	C471.236053,518.103943 465.727844,508.333160 471.262634,499.336639 
	C472.316925,497.622925 475.648438,496.373199 477.866119,496.463379 
	C492.978333,497.077698 508.064301,498.337189 523.176453,498.954712 
	C552.431885,500.150208 581.692810,501.329163 610.963318,501.997253 
	C632.074524,502.479187 653.204834,502.135071 674.326660,502.134369 
	C680.659119,502.134186 686.994568,502.159607 693.323425,501.984436 
	C716.443604,501.344635 739.565247,500.724121 762.678040,499.872711 
	C769.258911,499.630341 775.864563,497.508667 782.621094,500.927856 
	C783.000000,506.022095 783.000000,511.044189 782.604187,516.539551 
	C777.107788,517.344116 771.994324,517.541992 766.909363,518.034607 
	C756.484314,519.044556 749.309998,524.343750 745.742920,534.363892 
	C740.682190,548.579956 740.315002,563.493103 740.158997,578.221008 
	C739.709106,620.700928 739.796265,663.190247 740.127930,705.672363 
	C740.223694,717.937744 741.705994,730.205200 742.829895,742.446289 
	C744.044495,755.675293 745.883179,768.852539 746.858459,782.095825 
	C747.369568,789.035950 744.527893,792.598511 737.856323,794.731079 
	C732.963501,796.294983 727.845459,797.166443 722.812866,798.279053 
	C655.994507,813.050232 588.661804,824.434570 520.303650,829.115845 
	C518.833008,829.216553 517.432983,830.348938 516.000000,831.000000 
	C479.979095,831.000000 443.958221,831.000000 407.262146,830.681274 
	C401.730774,829.597290 396.865906,828.882690 392.019775,828.058105 
	C365.969299,823.625854 339.663849,820.307007 313.936371,814.451111 
	C274.446808,805.462830 237.208130,790.053589 201.998520,769.968994 
	C161.889404,747.089478 126.325653,718.538818 96.207932,683.478149 
	C73.864296,657.467529 55.487156,628.840332 40.821533,597.773682 
	C21.304815,556.430786 9.210144,513.064087 3.865368,467.721893 
	C3.359259,463.428345 1.976022,459.238159 1.000001,455.000000 
	C1.000000,426.979095 1.000000,398.958221 1.317286,370.265991 
	C2.726487,363.271637 3.991622,356.972900 4.881584,350.621582 
	C9.834258,315.276184 19.717384,281.381287 34.550598,248.924835 
	C51.084732,212.746658 73.053543,180.109650 99.864716,150.852692 
	C123.441254,125.125435 149.679199,102.321579 178.934601,83.148804 
	C216.894363,58.271561 257.509613,39.024006 300.866791,25.517941 
	C335.617798,14.692757 371.057465,7.428705 407.278381,3.849723 
	C411.900970,3.392965 416.428467,1.973484 421.000000,1.000002 
	C454.020905,1.000000 487.041779,1.000000 520.531372,1.000000 
z"/>
<path fill="#000000" opacity="1.000000" stroke="none" 
	d="
M420.531342,1.000002 
	C416.428467,1.973484 411.900970,3.392965 407.278381,3.849723 
	C371.057465,7.428705 335.617798,14.692757 300.866791,25.517941 
	C257.509613,39.024006 216.894363,58.271561 178.934601,83.148804 
	C149.679199,102.321579 123.441254,125.125435 99.864716,150.852692 
	C73.053543,180.109650 51.084732,212.746658 34.550598,248.924835 
	C19.717384,281.381287 9.834258,315.276184 4.881584,350.621582 
	C3.991622,356.972900 2.726487,363.271637 1.317286,369.797333 
	C1.000000,247.068207 1.000000,124.136421 1.000000,1.000000 
	C140.687500,1.000000 280.375092,1.000000 420.531342,1.000002 
z"/>
<path fill="#000000" opacity="1.000000" stroke="none" 
	d="
M1.000001,455.468658 
	C1.976022,459.238159 3.359259,463.428345 3.865368,467.721893 
	C9.210144,513.064087 21.304815,556.430786 40.821533,597.773682 
	C55.487156,628.840332 73.864296,657.467529 96.207932,683.478149 
	C126.325653,718.538818 161.889404,747.089478 201.998520,769.968994 
	C237.208130,790.053589 274.446808,805.462830 313.936371,814.451111 
	C339.663849,820.307007 365.969299,823.625854 392.019775,828.058105 
	C396.865906,828.882690 401.730774,829.597290 406.793518,830.681274 
	C271.742401,831.000000 136.484772,831.000000 1.000000,831.000000 
	C1.000000,705.979187 1.000000,580.958252 1.000001,455.468658 
z"/>
<path fill="#000000" opacity="1.000000" stroke="none" 
	d="
M516.468628,831.000000 
	C517.432983,830.348938 518.833008,829.216553 520.303650,829.115845 
	C588.661804,824.434570 655.994507,813.050232 722.812866,798.279053 
	C727.845459,797.166443 732.963501,796.294983 737.856323,794.731079 
	C744.527893,792.598511 747.369568,789.035950 746.858459,782.095825 
	C745.883179,768.852539 744.044495,755.675293 742.829895,742.446289 
	C741.705994,730.205200 740.223694,717.937744 740.127930,705.672363 
	C739.796265,663.190247 739.709106,620.700928 740.158997,578.221008 
	C740.315002,563.493103 740.682190,548.579956 745.742920,534.363892 
	C749.309998,524.343750 756.484314,519.044556 766.909363,518.034607 
	C771.994324,517.541992 777.107788,517.344116 782.604187,517.006409 
	C783.000000,621.587830 783.000000,726.175598 783.000000,831.000000 
	C694.312561,831.000000 605.624939,831.000000 516.468628,831.000000 
z"/>
</svg>